<?xml version="1.0" standalone="no"?>
<!DOCTYPE svg PUBLIC "-//W3C//DTD SVG 20010904//EN"
 "http://www.w3.org/TR/2001/REC-SVG-20010904/DTD/svg10.dtd">
<svg version="1.0" xmlns="http://www.w3.org/2000/svg"
 width="700.000000pt" height="700.000000pt" viewBox="0 0 700.000000 700.000000"
 preserveAspectRatio="xMidYMid meet">
<metadata>
Created by potrace 1.11, written by Peter Selinger 2001-2013
</metadata>
<g transform="translate(0.000000,700.000000) scale(0.100000,-0.100000)"
fill="#000000" stroke="none">
<path d="M3215 6083 c-137 -80 -268 -155 -290 -167 -22 -12 -186 -107 -365
-211 -179 -103 -401 -232 -495 -286 -93 -54 -341 -197 -550 -318 l-380 -219 0
-1352 0 -1352 95 -55 c52 -31 115 -67 139 -81 25 -14 68 -38 95 -55 28 -16 69
-40 91 -52 42 -23 167 -95 320 -185 50 -28 108 -62 130 -75 22 -12 155 -89
295 -170 140 -81 271 -157 290 -167 19 -11 225 -130 458 -264 l422 -244 448
258 c246 142 467 270 492 284 67 38 463 266 480 277 13 8 245 143 419 243 25
14 147 85 271 156 l225 130 0 1352 0 1352 -95 55 c-52 31 -110 64 -128 74 -18
11 -209 121 -425 245 -216 125 -405 234 -422 244 -88 50 -894 516 -1035 598
-189 109 -230 132 -233 132 -1 -1 -114 -66 -252 -147z m453 -601 c211 -313
491 -728 638 -945 52 -76 94 -140 94 -141 0 -2 -418 -3 -929 -3 l-930 0 11 21
c6 12 25 41 43 66 17 25 121 178 231 340 109 162 256 381 327 485 70 105 170
252 220 327 51 76 94 137 97 138 3 0 92 -130 198 -288z m-720 71 c-9 -10 -67
-94 -130 -188 -63 -93 -195 -289 -293 -435 -255 -379 -306 -453 -321 -469 -11
-12 -52 9 -266 132 -139 80 -273 158 -297 172 l-43 26 443 256 c244 141 456
263 471 272 43 26 252 146 260 149 4 2 45 26 90 53 87 52 111 60 86 32z m1156
-47 c84 -50 499 -289 591 -341 22 -13 123 -71 225 -130 102 -59 199 -115 215
-125 233 -134 218 -115 135 -162 -25 -14 -61 -35 -80 -46 -19 -11 -126 -72
-237 -136 -112 -65 -207 -115 -212 -112 -5 3 -73 102 -152 219 -78 116 -175
259 -214 317 -39 58 -138 204 -220 325 -81 121 -155 229 -164 239 -15 18 -15
19 3 12 11 -4 61 -31 110 -60z m-2554 -1046 c43 -27 151 -90 154 -90 4 0 328
-189 334 -194 1 -2 -64 -137 -144 -302 -80 -164 -163 -335 -184 -379 -21 -44
-90 -186 -153 -315 l-115 -234 0 786 0 786 47 -24 c25 -14 53 -29 61 -34z
m3948 -727 l0 -788 -100 205 c-55 113 -135 277 -178 365 -238 487 -303 622
-311 642 -7 19 1 26 79 71 48 27 182 104 297 171 116 66 211 121 211 121 1 0
2 -354 2 -787z m-1083 345 c3 -3 -18 -45 -46 -94 -28 -49 -63 -109 -77 -134
-14 -25 -98 -171 -187 -325 -89 -154 -265 -458 -390 -675 -125 -217 -232 -401
-238 -408 -7 -9 -39 39 -118 175 -60 102 -109 187 -109 189 0 1 -61 106 -135
234 -74 127 -135 234 -135 236 0 2 -12 23 -26 46 -49 78 -164 280 -164 289 0
5 -4 9 -10 9 -5 0 -10 4 -10 9 0 5 -39 76 -86 158 -48 81 -100 173 -117 203
-16 30 -34 59 -38 65 -5 5 -9 14 -9 20 0 10 1884 14 1895 3z m-2052 -356 c45
-78 90 -157 101 -175 53 -92 246 -427 264 -457 53 -93 426 -739 444 -768 l21
-34 -64 6 c-35 3 -98 8 -139 11 -121 7 -231 15 -290 20 -30 3 -93 7 -140 10
-47 3 -110 7 -140 10 -90 7 -227 17 -425 29 -49 3 -108 8 -130 11 -22 3 -87 7
-145 10 -100 5 -190 14 -190 20 0 1 68 142 151 311 83 170 180 368 214 439 35
72 113 234 175 360 62 127 128 264 147 305 41 88 28 98 146 -108z m2356 116
c16 -35 86 -180 156 -323 70 -143 146 -300 170 -350 24 -49 115 -238 204 -419
89 -181 160 -331 158 -333 -5 -5 -59 -10 -177 -18 -52 -3 -120 -8 -151 -10
-30 -2 -93 -7 -140 -10 -46 -3 -109 -8 -139 -11 -30 -2 -93 -7 -140 -9 -47 -3
-107 -7 -135 -10 -27 -2 -90 -7 -140 -10 -91 -5 -185 -12 -285 -20 -30 -3 -91
-7 -135 -10 -44 -3 -110 -8 -148 -11 l-67 -6 30 52 c16 28 30 54 30 57 0 4 6
14 14 22 8 9 27 40 42 69 16 29 34 61 39 70 24 41 104 180 123 212 30 53 231
401 352 610 59 102 118 205 132 230 14 25 38 68 55 95 16 28 49 83 72 123 23
39 44 72 46 72 3 0 18 -28 34 -62z m-2594 -1784 c61 -3 126 -7 145 -9 35 -4
136 -11 280 -20 41 -3 102 -7 135 -10 33 -2 101 -7 150 -11 50 -3 108 -7 130
-9 22 -2 87 -7 145 -10 58 -4 114 -9 125 -10 11 -1 34 -3 50 -4 l30 -1 0 -345
c0 -190 -1 -345 -2 -345 -1 0 -100 57 -220 126 -120 70 -236 137 -258 149
-248 141 -862 499 -870 507 -7 7 -1 8 20 4 17 -3 80 -8 140 -12z m2851 4 c4
-5 3 -8 -3 -8 -6 0 -121 -63 -255 -141 -133 -78 -261 -151 -283 -163 -46 -26
-282 -163 -590 -342 -115 -67 -212 -118 -215 -114 -7 11 -6 668 1 675 6 6 50
10 199 20 52 3 115 8 140 10 25 2 88 6 140 9 118 8 218 15 290 21 30 3 91 7
135 10 44 3 109 7 145 10 36 3 103 7 149 10 47 3 86 7 88 8 5 6 52 2 59 -5z"/>
</g>
</svg>
